<svg width="246" height="31" viewBox="0 0 246 31" fill="none" xmlns="http://www.w3.org/2000/svg">
<path d="M44.3369 30.0868H39.9424L31.3877 16.0536V30.0868H26.9932V8.7587H31.3877L39.957 22.8212V8.7587H44.3369V30.0868ZM65.0498 27.3915C64.2588 28.3388 63.1406 29.0761 61.6953 29.6034C60.25 30.121 58.6484 30.3798 56.8906 30.3798C55.0449 30.3798 53.4238 29.9794 52.0273 29.1786C50.6406 28.3681 49.5664 27.1962 48.8047 25.663C48.0527 24.1298 47.667 22.328 47.6475 20.2577V18.8075C47.6475 16.6786 48.0039 14.8378 48.7168 13.2851C49.4395 11.7226 50.4746 10.5312 51.8223 9.71085C53.1797 8.88077 54.7666 8.46573 56.583 8.46573C59.1123 8.46573 61.0898 9.0712 62.5156 10.2821C63.9414 11.4833 64.7861 13.2362 65.0498 15.5409H60.7725C60.5771 14.3202 60.1426 13.4267 59.4688 12.8603C58.8047 12.2939 57.8867 12.0107 56.7148 12.0107C55.2207 12.0107 54.083 12.5722 53.3018 13.6952C52.5205 14.8183 52.125 16.4882 52.1152 18.705V20.0673C52.1152 22.3036 52.54 23.9931 53.3896 25.1357C54.2393 26.2782 55.4844 26.8495 57.125 26.8495C58.7754 26.8495 59.9521 26.498 60.6553 25.7948V22.1181H56.6562V18.8808H65.0498V27.3915ZM84.7666 8.7587V22.8065C84.7666 25.1405 84.0342 26.9862 82.5693 28.3437C81.1143 29.7011 79.1221 30.3798 76.5928 30.3798C74.1025 30.3798 72.125 29.7206 70.6602 28.4023C69.1953 27.0839 68.4482 25.2724 68.4189 22.9677V8.7587H72.8135V22.8358C72.8135 24.2323 73.1455 25.2528 73.8096 25.8974C74.4834 26.5321 75.4111 26.8495 76.5928 26.8495C79.0635 26.8495 80.3184 25.5507 80.3574 22.953V8.7587H84.7666ZM92.7646 26.5565H102.096V30.0868H88.3701V8.7587H92.7646V26.5565ZM116.964 25.6923H109.259L107.794 30.0868H103.121L111.061 8.7587H115.133L123.116 30.0868H118.443L116.964 25.6923ZM110.445 22.1327H115.777L113.097 14.1493L110.445 22.1327ZM133.004 22.2792H129.503V30.0868H125.108V8.7587H133.033C135.553 8.7587 137.496 9.32022 138.863 10.4433C140.23 11.5663 140.914 13.1532 140.914 15.204C140.914 16.6591 140.597 17.8749 139.962 18.8515C139.337 19.8183 138.385 20.5898 137.105 21.1659L141.72 29.8817V30.0868H137.003L133.004 22.2792ZM129.503 18.7196H133.048C134.151 18.7196 135.006 18.4413 135.611 17.8847C136.217 17.3183 136.52 16.5419 136.52 15.5556C136.52 14.5497 136.231 13.7587 135.655 13.1825C135.089 12.6064 134.215 12.3183 133.033 12.3183H129.503V18.7196ZM151.739 30.0868V8.7587H159.21C161.798 8.7587 163.761 9.25674 165.099 10.2528C166.437 11.2392 167.105 12.6894 167.105 14.6034C167.105 15.6483 166.837 16.5712 166.3 17.372C165.763 18.163 165.016 18.744 164.059 19.1151C165.152 19.3886 166.012 19.9403 166.637 20.7704C167.271 21.6005 167.589 22.6161 167.589 23.8173C167.589 25.8681 166.935 27.4208 165.626 28.4755C164.317 29.5302 162.452 30.0673 160.03 30.0868H151.739ZM156.134 20.7997V26.5565H159.898C160.934 26.5565 161.739 26.3124 162.315 25.8241C162.901 25.3261 163.194 24.6425 163.194 23.7733C163.194 21.8202 162.184 20.829 160.162 20.7997H156.134ZM156.134 17.6942H159.386C161.603 17.6552 162.711 16.7714 162.711 15.0429C162.711 14.0761 162.428 13.3827 161.861 12.9628C161.305 12.5331 160.421 12.3183 159.21 12.3183H156.134V17.6942ZM175.294 26.5565H184.625V30.0868H170.899V8.7587H175.294V26.5565ZM203.741 19.9062C203.741 22.0058 203.37 23.8466 202.628 25.4286C201.886 27.0107 200.821 28.2314 199.435 29.0907C198.058 29.9501 196.476 30.3798 194.688 30.3798C192.921 30.3798 191.344 29.955 189.957 29.1054C188.57 28.2558 187.496 27.0448 186.734 25.4726C185.973 23.8905 185.587 22.0741 185.577 20.0233V18.9687C185.577 16.869 185.953 15.0233 186.705 13.4315C187.467 11.83 188.536 10.6044 189.913 9.75479C191.3 8.89542 192.882 8.46573 194.659 8.46573C196.437 8.46573 198.014 8.89542 199.391 9.75479C200.777 10.6044 201.847 11.83 202.599 13.4315C203.36 15.0233 203.741 16.8642 203.741 18.954V19.9062ZM199.288 18.9394C199.288 16.703 198.888 15.0038 198.087 13.8417C197.286 12.6796 196.144 12.0985 194.659 12.0985C193.185 12.0985 192.047 12.6747 191.246 13.8271C190.445 14.9696 190.04 16.6493 190.03 18.8661V19.9062C190.03 22.0839 190.431 23.7733 191.231 24.9745C192.032 26.1757 193.185 26.7763 194.688 26.7763C196.163 26.7763 197.296 26.2001 198.087 25.0478C198.878 23.8857 199.278 22.1962 199.288 19.9794V18.9394ZM223.81 27.3915C223.019 28.3388 221.9 29.0761 220.455 29.6034C219.01 30.121 217.408 30.3798 215.65 30.3798C213.805 30.3798 212.184 29.9794 210.787 29.1786C209.4 28.3681 208.326 27.1962 207.564 25.663C206.812 24.1298 206.427 22.328 206.407 20.2577V18.8075C206.407 16.6786 206.764 14.8378 207.477 13.2851C208.199 11.7226 209.234 10.5312 210.582 9.71085C211.939 8.88077 213.526 8.46573 215.343 8.46573C217.872 8.46573 219.85 9.0712 221.275 10.2821C222.701 11.4833 223.546 13.2362 223.81 15.5409H219.532C219.337 14.3202 218.902 13.4267 218.229 12.8603C217.564 12.2939 216.646 12.0107 215.475 12.0107C213.98 12.0107 212.843 12.5722 212.062 13.6952C211.28 14.8183 210.885 16.4882 210.875 18.705V20.0673C210.875 22.3036 211.3 23.9931 212.149 25.1357C212.999 26.2782 214.244 26.8495 215.885 26.8495C217.535 26.8495 218.712 26.498 219.415 25.7948V22.1181H215.416V18.8808H223.81V27.3915ZM244.259 27.3915C243.468 28.3388 242.35 29.0761 240.904 29.6034C239.459 30.121 237.857 30.3798 236.1 30.3798C234.254 30.3798 232.633 29.9794 231.236 29.1786C229.85 28.3681 228.775 27.1962 228.014 25.663C227.262 24.1298 226.876 22.328 226.856 20.2577V18.8075C226.856 16.6786 227.213 14.8378 227.926 13.2851C228.648 11.7226 229.684 10.5312 231.031 9.71085C232.389 8.88077 233.976 8.46573 235.792 8.46573C238.321 8.46573 240.299 9.0712 241.725 10.2821C243.15 11.4833 243.995 13.2362 244.259 15.5409H239.981C239.786 14.3202 239.352 13.4267 238.678 12.8603C238.014 12.2939 237.096 12.0107 235.924 12.0107C234.43 12.0107 233.292 12.5722 232.511 13.6952C231.729 14.8183 231.334 16.4882 231.324 18.705V20.0673C231.324 22.3036 231.749 23.9931 232.599 25.1357C233.448 26.2782 234.693 26.8495 236.334 26.8495C237.984 26.8495 239.161 26.498 239.864 25.7948V22.1181H235.865V18.8808H244.259V27.3915Z" fill="white"/>
<ellipse cx="11.5" cy="19.3871" rx="11.5" ry="11.6129" fill="white"/>
<path d="M15.8335 25.3125H7.61475L6.05225 30H1.06787L9.53662 7.25H13.8804L22.396 30H17.4116L15.8335 25.3125ZM8.88037 21.5156H14.5679L11.7085 13L8.88037 21.5156Z" fill="#D68563"/>
</svg>
