<svg width="296" height="36" viewBox="0 0 296 36" fill="none" xmlns="http://www.w3.org/2000/svg">
<path d="M53.0273 34H47.7539L37.4883 17.1602V34H32.2148V8.40625H37.4883L47.7715 25.2812V8.40625H53.0273V34ZM77.8828 30.7656C76.9336 31.9023 75.5918 32.7871 73.8574 33.4199C72.123 34.041 70.2012 34.3516 68.0918 34.3516C65.877 34.3516 63.9316 33.8711 62.2559 32.9102C60.5918 31.9375 59.3027 30.5312 58.3887 28.6914C57.4863 26.8516 57.0234 24.6895 57 22.2051V20.4648C57 17.9102 57.4277 15.7012 58.2832 13.8379C59.1504 11.9629 60.3926 10.5332 62.0098 9.54883C63.6387 8.55273 65.543 8.05469 67.7227 8.05469C70.7578 8.05469 73.1309 8.78125 74.8418 10.2344C76.5527 11.6758 77.5664 13.7793 77.8828 16.5449H72.75C72.5156 15.0801 71.9941 14.0078 71.1855 13.3281C70.3887 12.6484 69.2871 12.3086 67.8809 12.3086C66.0879 12.3086 64.7227 12.9824 63.7852 14.3301C62.8477 15.6777 62.373 17.6816 62.3613 20.3418V21.9766C62.3613 24.6602 62.8711 26.6875 63.8906 28.0586C64.9102 29.4297 66.4043 30.1152 68.373 30.1152C70.3535 30.1152 71.7656 29.6934 72.6094 28.8496V24.4375H67.8105V20.5527H77.8828V30.7656ZM101.543 8.40625V25.2637C101.543 28.0645 100.664 30.2793 98.9062 31.9082C97.1602 33.5371 94.7695 34.3516 91.7344 34.3516C88.7461 34.3516 86.373 33.5605 84.6152 31.9785C82.8574 30.3965 81.9609 28.2227 81.9258 25.457V8.40625H87.1992V25.2988C87.1992 26.9746 87.5977 28.1992 88.3945 28.9727C89.2031 29.7344 90.3164 30.1152 91.7344 30.1152C94.6992 30.1152 96.2051 28.5566 96.252 25.4395V8.40625H101.543ZM111.141 29.7637H122.338V34H105.867V8.40625H111.141V29.7637ZM140.18 28.7266H130.934L129.176 34H123.568L133.096 8.40625H137.982L147.562 34H141.955L140.18 28.7266ZM132.357 24.4551H138.756L135.539 14.875L132.357 24.4551ZM159.428 24.6309H155.227V34H149.953V8.40625H159.463C162.486 8.40625 164.818 9.08008 166.459 10.4277C168.1 11.7754 168.92 13.6797 168.92 16.1406C168.92 17.8867 168.539 19.3457 167.777 20.5176C167.027 21.6777 165.885 22.6035 164.35 23.2949L169.887 33.7539V34H164.227L159.428 24.6309ZM155.227 20.3594H159.48C160.805 20.3594 161.83 20.0254 162.557 19.3574C163.283 18.6777 163.646 17.7461 163.646 16.5625C163.646 15.3555 163.301 14.4062 162.609 13.7148C161.93 13.0234 160.881 12.6777 159.463 12.6777H155.227V20.3594ZM181.91 34V8.40625H190.875C193.98 8.40625 196.336 9.00391 197.941 10.1992C199.547 11.3828 200.35 13.123 200.35 15.4199C200.35 16.6738 200.027 17.7812 199.383 18.7422C198.738 19.6914 197.842 20.3887 196.693 20.834C198.006 21.1621 199.037 21.8242 199.787 22.8203C200.549 23.8164 200.93 25.0352 200.93 26.4766C200.93 28.9375 200.145 30.8008 198.574 32.0664C197.004 33.332 194.766 33.9766 191.859 34H181.91ZM187.184 22.8555V29.7637H191.701C192.943 29.7637 193.91 29.4707 194.602 28.8848C195.305 28.2871 195.656 27.4668 195.656 26.4238C195.656 24.0801 194.443 22.8906 192.018 22.8555H187.184ZM187.184 19.1289H191.086C193.746 19.082 195.076 18.0215 195.076 15.9473C195.076 14.7871 194.736 13.9551 194.057 13.4512C193.389 12.9355 192.328 12.6777 190.875 12.6777H187.184V19.1289ZM210.176 29.7637H221.373V34H204.902V8.40625H210.176V29.7637ZM244.312 21.7832C244.312 24.3027 243.867 26.5117 242.977 28.4102C242.086 30.3086 240.809 31.7734 239.145 32.8047C237.492 33.8359 235.594 34.3516 233.449 34.3516C231.328 34.3516 229.436 33.8418 227.771 32.8223C226.107 31.8027 224.818 30.3496 223.904 28.4629C222.99 26.5645 222.527 24.3848 222.516 21.9238V20.6582C222.516 18.1387 222.967 15.9238 223.869 14.0137C224.783 12.0918 226.066 10.6211 227.719 9.60156C229.383 8.57031 231.281 8.05469 233.414 8.05469C235.547 8.05469 237.439 8.57031 239.092 9.60156C240.756 10.6211 242.039 12.0918 242.941 14.0137C243.855 15.9238 244.312 18.1328 244.312 20.6406V21.7832ZM238.969 20.623C238.969 17.9395 238.488 15.9004 237.527 14.5059C236.566 13.1113 235.195 12.4141 233.414 12.4141C231.645 12.4141 230.279 13.1055 229.318 14.4883C228.357 15.8594 227.871 17.875 227.859 20.5352V21.7832C227.859 24.3965 228.34 26.4238 229.301 27.8652C230.262 29.3066 231.645 30.0273 233.449 30.0273C235.219 30.0273 236.578 29.3359 237.527 27.9531C238.477 26.5586 238.957 24.5312 238.969 21.8711V20.623ZM268.395 30.7656C267.445 31.9023 266.104 32.7871 264.369 33.4199C262.635 34.041 260.713 34.3516 258.604 34.3516C256.389 34.3516 254.443 33.8711 252.768 32.9102C251.104 31.9375 249.814 30.5312 248.9 28.6914C247.998 26.8516 247.535 24.6895 247.512 22.2051V20.4648C247.512 17.9102 247.939 15.7012 248.795 13.8379C249.662 11.9629 250.904 10.5332 252.521 9.54883C254.15 8.55273 256.055 8.05469 258.234 8.05469C261.27 8.05469 263.643 8.78125 265.354 10.2344C267.064 11.6758 268.078 13.7793 268.395 16.5449H263.262C263.027 15.0801 262.506 14.0078 261.697 13.3281C260.9 12.6484 259.799 12.3086 258.393 12.3086C256.6 12.3086 255.234 12.9824 254.297 14.3301C253.359 15.6777 252.885 17.6816 252.873 20.3418V21.9766C252.873 24.6602 253.383 26.6875 254.402 28.0586C255.422 29.4297 256.916 30.1152 258.885 30.1152C260.865 30.1152 262.277 29.6934 263.121 28.8496V24.4375H258.322V20.5527H268.395V30.7656ZM292.934 30.7656C291.984 31.9023 290.643 32.7871 288.908 33.4199C287.174 34.041 285.252 34.3516 283.143 34.3516C280.928 34.3516 278.982 33.8711 277.307 32.9102C275.643 31.9375 274.354 30.5312 273.439 28.6914C272.537 26.8516 272.074 24.6895 272.051 22.2051V20.4648C272.051 17.9102 272.479 15.7012 273.334 13.8379C274.201 11.9629 275.443 10.5332 277.061 9.54883C278.689 8.55273 280.594 8.05469 282.773 8.05469C285.809 8.05469 288.182 8.78125 289.893 10.2344C291.604 11.6758 292.617 13.7793 292.934 16.5449H287.801C287.566 15.0801 287.045 14.0078 286.236 13.3281C285.439 12.6484 284.338 12.3086 282.932 12.3086C281.139 12.3086 279.773 12.9824 278.836 14.3301C277.898 15.6777 277.424 17.6816 277.412 20.3418V21.9766C277.412 24.6602 277.922 26.6875 278.941 28.0586C279.961 29.4297 281.455 30.1152 283.424 30.1152C285.404 30.1152 286.816 29.6934 287.66 28.8496V24.4375H282.861V20.5527H292.934V30.7656Z" fill="white"/>
<circle cx="14" cy="22" r="14" fill="white"/>
<path d="M18.6641 29.4336H8.9043L7.04883 35H1.12988L11.1865 7.98438H16.3447L26.457 35H20.5381L18.6641 29.4336ZM10.4072 24.9248H17.1611L13.7656 14.8125L10.4072 24.9248Z" fill="#D68563"/>
</svg>
